<svg xmlns="http://www.w3.org/2000/svg" viewBox="0 0 200 200" fill="none">
  <circle cx="100" cy="100" r="90" fill="#e0f2f1" opacity="0.5"/>
  <circle cx="100" cy="65" r="18" fill="#007a75"/>
  <path d="M70 120c0-16.6 13.4-30 30-30s30 13.4 30 30v10H70v-10z" fill="#009e97" opacity="0.85"/>
  <circle cx="55" cy="80" r="14" fill="#009e97" opacity="0.7"/>
  <path d="M32 125c0-12.7 10.3-23 23-23s23 10.3 23 23v5H32v-5z" fill="#00b5ad" opacity="0.6"/>
  <circle cx="145" cy="80" r="14" fill="#009e97" opacity="0.7"/>
  <path d="M122 125c0-12.7 10.3-23 23-23s23 10.3 23 23v5h-46v-5z" fill="#00b5ad" opacity="0.6"/>
  <path d="M60 130h80" stroke="#007a75" stroke-width="3" opacity="0.4"/>
  <rect x="40" y="140" width="120" height="8" rx="4" fill="#007a75" opacity="0.5"/>
</svg>
