<svg xmlns="http://www.w3.org/2000/svg" viewBox="0 0 200 200" fill="none">
  <!-- Background circle -->
  <circle cx="100" cy="100" r="90" fill="#e0f2f1" opacity="0.5"/>
  <!-- Shield shape -->
  <path d="M100 25L155 50V105c0 30-22 52-55 65-33-13-55-35-55-65V50L100 25z" fill="#007a75" opacity="0.85"/>
  <!-- Inner shield -->
  <path d="M100 38L145 58V102c0 25-18 44-45 55-27-11-45-30-45-55V58L100 38z" fill="#009e97" opacity="0.7"/>
  <!-- Star -->
  <path d="M100 58l8 16.5 18 2.5-13 12.5 3 18-16-8.5-16 8.5 3-18-13-12.5 18-2.5z" fill="#e0f2f1" opacity="0.9"/>
  <!-- Chevron stripes at bottom -->
  <path d="M75 120l25 15 25-15" stroke="#e0f2f1" stroke-width="4" fill="none" stroke-linecap="round"/>
  <path d="M75 132l25 15 25-15" stroke="#e0f2f1" stroke-width="4" fill="none" stroke-linecap="round"/>
</svg>
