<svg xmlns="http://www.w3.org/2000/svg" viewBox="0 0 200 200" fill="none">
  <circle cx="100" cy="100" r="90" fill="#e0f2f1" opacity="0.5"/>
  <path d="M75 155c-11 0-20-7-20-16s9-16 20-16 20 7 20 16-9 16-20 16z" fill="#007a75" opacity="0.85"/>
  <path d="M135 135c-11 0-20-7-20-16s9-16 20-16 20 7 20 16-9 16-20 16z" fill="#007a75" opacity="0.85"/>
  <rect x="91" y="35" width="8" height="108" rx="4" fill="#009e97"/>
  <rect x="151" y="25" width="8" height="98" rx="4" fill="#009e97"/>
  <path d="M95 35h64v30H95z" rx="4" fill="#007a75" opacity="0.7"/>
  <rect x="95" y="35" width="64" height="12" rx="4" fill="#009e97"/>
  <rect x="95" y="53" width="64" height="12" rx="4" fill="#009e97" opacity="0.6"/>
</svg>
